<svg xmlns="http://www.w3.org/2000/svg" enable-background="new 0 0 1000 1000" viewBox="0 0 1000 1000"><linearGradient id="a" x1="508.422" x2="525.072" y1="587.491" y2="1153.594" gradientUnits="userSpaceOnUse"><stop offset=".032" stop-color="#faaf87"/><stop offset=".82" stop-color="#ffd9a9"/></linearGradient><path fill="url(#a)" d="M855.87,745.31c-32.58-32.2-187.63-11.77-239.61-70.46c-10.45-11.81-20.66-52.67-28.74-94.17
			c-0.24-1.24-1.43-2.15-2.82-2.15h-64h-5.91H450.8c-1.39,0-2.58,0.91-2.82,2.15c-8.09,41.5-18.29,82.35-28.74,94.17
			c-51.97,58.69-207.05,38.26-239.61,70.46c-13.4,13.29-16.98,43.5-17.13,71.09c0,0,1.28,268.71,2.87,268.71
			c0,0,707.64-1.16,707.64-2.6V816.4C872.86,788.81,869.28,758.6,855.87,745.31z"/><linearGradient id="b" x1="471.494" x2="567.982" y1="186.719" y2="583.636" gradientUnits="userSpaceOnUse"><stop offset=".032" stop-color="#faaf87"/><stop offset="1" stop-color="#ffd9a9"/></linearGradient><path fill="url(#b)" d="M339.6,284.38c24.63-107.5,102.01-150.53,174.49-151.73v-0.08
					c0.59,0.01,1.22,0.06,1.81,0.06c0.63,0,1.19-0.05,1.81-0.05v0.07c72.47,1.4,149.71,44.62,174.06,152.18
					c35.08,155.02-25.81,252.05-95.04,310.73c-27.97,23.76-54.5,34.36-79.69,34.34V630c-0.63,0.02-1.2-0.08-1.81-0.08
					c-0.6,0-1.24,0.1-1.82,0.08v-0.09c-25.23-0.07-51.72-10.73-79.61-34.55C364.72,536.5,304.12,439.3,339.6,284.38z"/><linearGradient id="c" x1="515.735" x2="517.401" y1="512.127" y2="540.134" gradientUnits="userSpaceOnUse"><stop offset="0" stop-color="#a7000b"/><stop offset="1" stop-color="red"/></linearGradient><path fill="url(#c)" d="M527.86,504.86c-4.43,0-9.57,5.73-11.58,5.73c-2.02,0-7.15-5.73-11.58-5.73
					c-9.93,0-42.95,16.38-42.95,16.38s7.61,5.55,14.03,8.06c15.54,6.07,27.61,11.57,40.5,11.57c12.89,0,24.96-5.49,40.5-11.57
					c6.42-2.51,14.03-8.06,14.03-8.06S537.79,504.86,527.86,504.86z"/><linearGradient id="d" x1="522.65" x2="505.37" y1="687.59" y2="975.59" gradientUnits="userSpaceOnUse"><stop offset="0" stop-color="#24004b"/><stop offset="1" stop-color="#000f5d"/></linearGradient><path fill="url(#d)" d="M671.17,701.25l-311.38-0.04C329.97,715.02,285.35,714.63,252,720l9,324h251.34h6.29h251.34L774,720
		C740.64,714.64,700.99,715.06,671.17,701.25z"/><linearGradient id="e" x1="467.392" x2="458.752" y1="85.804" y2="316.204" gradientUnits="userSpaceOnUse"><stop offset="0" stop-color="#24004b"/><stop offset="1" stop-color="#000f5d"/></linearGradient><path fill="url(#e)" d="M540,135c0,0,77.77,18.93,40.21,99.97c-37.86,81.69-110.69,156.16-110.69,156.16l33.6-98.83
	c0,0-13.84-17.79-64.24,79.06C417.87,411.72,388.48,486,388.48,486s-5.75-30.88-0.99-106.74c1.98-31.63-14.18,0.68-14.18,0.68
	s-15.14,44.81-15.14,44.13c0-1.33-21.22-67.89-25.17-136.08C327.85,199.11,468,117,540,135z"/><linearGradient id="f" x1="315" x2="351" y1="450" y2="450" gradientUnits="userSpaceOnUse"><stop offset="0" stop-color="#24004b"/><stop offset="1" stop-color="#000f5d"/></linearGradient><circle cx="333" cy="450" r="18" fill="url(#f)"/><linearGradient id="g" x1="324" x2="342" y1="477" y2="477" gradientUnits="userSpaceOnUse"><stop offset="0" stop-color="#24004b"/><stop offset="1" stop-color="#000f5d"/></linearGradient><circle cx="333" cy="477" r="9" fill="url(#g)"/><linearGradient id="h" x1="684" x2="720" y1="450" y2="450" gradientUnits="userSpaceOnUse"><stop offset="0" stop-color="#24004b"/><stop offset="1" stop-color="#000f5d"/></linearGradient><circle cx="702" cy="450" r="18" fill="url(#h)"/><linearGradient id="i" x1="693" x2="711" y1="477" y2="477" gradientUnits="userSpaceOnUse"><stop offset="0" stop-color="#24004b"/><stop offset="1" stop-color="#000f5d"/></linearGradient><circle cx="702" cy="477" r="9" fill="url(#i)"/><linearGradient id="j" x1="622.235" x2="613.595" y1="91.61" y2="322.01" gradientUnits="userSpaceOnUse"><stop offset="0" stop-color="#24004b"/><stop offset="1" stop-color="#000f5d"/></linearGradient><path fill="url(#j)" d="M531,135c0,0,90,9,45,108s126,108,126,108S720,162,531,135z"/></svg>